<mxfile host="app.diagrams.net" modified="2023-12-30T02:44:43.072Z" agent="Mozilla/5.0 (Macintosh; Intel Mac OS X 10_15_7) AppleWebKit/537.36 (KHTML, like Gecko) Chrome/120.0.0.0 Safari/537.36" etag="jgVgR61_eZoEQPGATUTj" version="22.1.16" type="github">
  <diagram name="第 1 页" id="IE6ri8-UPurYHdycowPD">
    <mxGraphModel dx="2074" dy="1121" grid="1" gridSize="10" guides="1" tooltips="1" connect="1" arrows="1" fold="1" page="1" pageScale="1" pageWidth="827" pageHeight="1169" math="0" shadow="0">
      <root>
        <mxCell id="0" />
        <mxCell id="1" parent="0" />
        <mxCell id="gT-nuku6gynwxU-kW0Jd-1" value="" style="triangle;whiteSpace=wrap;html=1;rotation=-90;fillColor=#f8cecc;strokeColor=#67AB9F;" vertex="1" parent="1">
          <mxGeometry x="272.5" y="332.5" width="115" height="80" as="geometry" />
        </mxCell>
        <mxCell id="gT-nuku6gynwxU-kW0Jd-2" value="" style="shape=trapezoid;perimeter=trapezoidPerimeter;whiteSpace=wrap;html=1;fixedSize=1;fillColor=#d5e8d4;strokeColor=#67AB9F;" vertex="1" parent="1">
          <mxGeometry x="270" y="430" width="120" height="60" as="geometry" />
        </mxCell>
        <mxCell id="gT-nuku6gynwxU-kW0Jd-3" value="" style="shape=trapezoid;perimeter=trapezoidPerimeter;whiteSpace=wrap;html=1;fixedSize=1;fillColor=#dae8fc;strokeColor=#67AB9F;" vertex="1" parent="1">
          <mxGeometry x="250" y="490" width="160" height="60" as="geometry" />
        </mxCell>
      </root>
    </mxGraphModel>
  </diagram>
</mxfile>
